<svg xmlns="http://www.w3.org/2000/svg" viewBox="0 0 18 18"><path d="M1.271 16.642c.242.248.598.347.932.26l6.258-1.633c.042-.011.084-.025.124-.041.003-.001.005-.003.008-.004.049-.021.095-.047.14-.075.012-.007.023-.015.035-.023.046-.032.089-.067.129-.106 0-.001.001-.001.002-.001l5.577-5.578 2.018-2.017c.327-.327.507-.762.507-1.225 0-.462-.18-.897-.507-1.224l-3.401-3.401c-.327-.328-.762-.508-1.225-.508-.463 0-.897.18-1.224.507L8.627 3.591 3.049 9.169c-.004.003-.006.008-.01.011-.036.037-.069.078-.099.121-.007.011-.015.021-.022.032-.029.046-.054.093-.075.144-.005.012-.009.024-.013.036-.009.023-.018.045-.025.069l-1.769 6.122c-.096.332-.006.69.235.938zm2.083-2.029l.847-2.932 2.15 2.15-2.997.782zM11.868 3.07l3.129 3.129L13.796 7.4l-3.129-3.129 1.201-1.201zM9.307 5.631l3.129 3.129-4.218 4.218-3.129-3.129 4.218-4.218z"/></svg>