<svg xmlns="http://www.w3.org/2000/svg" viewBox="0 0 18 18"><path d="M4.667 16.998c-.481 0-.878-.376-.903-.857l-.522-9.45c-.013-.241.069-.473.231-.652.161-.18.383-.286.625-.299H4.1c.527 0 .923.376.949.856l.476 8.593h6.95l.477-8.593c.025-.48.423-.857.907-.857.285.014.507.12.668.3.162.179.244.411.231.652l-.522 9.45c-.025.481-.422.857-.903.857H4.667zm5.715-2.393c-.211 0-.411-.086-.563-.241-.159-.163-.247-.386-.242-.612l.174-6.954c.011-.447.372-.798.824-.798.466.011.825.389.814.843l-.174 6.946c-.011.45-.378.816-.819.816h-.014zm-2.805 0c-.433 0-.808-.382-.818-.833L6.585 6.8c-.005-.219.075-.426.227-.584.15-.156.354-.245.573-.25.46 0 .827.363.837.809l.174 6.956c.006.233-.086.464-.252.634-.151.155-.348.24-.552.24h-.015zM2.334 4.862c-.499 0-.905-.406-.905-.905 0-.498.406-.904.905-.904h3.539V1.735c0-.438.31-.733.772-.733h4.71c.462 0 .772.295.772.733v1.318h3.539c.499 0 .905.406.905.904 0 .499-.406.905-.905.905H2.334zm8.155-1.809V2.64H7.512v.413h2.977z"/></svg>