<svg xmlns="http://www.w3.org/2000/svg" viewBox="0 0 22 12"><path d="M20.772 5.343c-2.26-2.85-5.586-4.527-9.19-4.693-.193-.02-.386-.032-.582-.032s-.39.012-.581.032c-3.605.166-6.931 1.843-9.19 4.693-.363.458-.287 1.122.172 1.485.458.364 1.123.286 1.485-.171.866-1.093 1.929-1.967 3.108-2.621-.24.61-.376 1.271-.376 1.964 0 2.968 2.415 5.382 5.382 5.382S16.382 8.968 16.382 6c0-.693-.136-1.354-.376-1.964 1.179.653 2.242 1.527 3.109 2.621.209.263.517.4.829.4.23 0 .462-.075.656-.229.457-.363.534-1.027.172-1.485zM11 9.267C9.199 9.267 7.733 7.801 7.733 6S9.199 2.732 11 2.732 14.268 4.199 14.268 6 12.802 9.267 11 9.267zm0-4.541c-.704 0-1.274.57-1.274 1.274s.57 1.274 1.274 1.274c.703 0 1.274-.57 1.274-1.274S11.703 4.726 11 4.726z"/></svg>